{"title":"60 Minutes AU - 4-9-2016","uid":15866703,"size":445622297,"categoryP":"video","categoryS":"tv_shows","magnet":"?xt=urn:btih:c3fc6fd5017d8e32bc47971a3ac3f3eb421e394a&amp;dn=60+Minutes+AU+-+4-9-2016&amp;tr=udp%3A%2F%2Ftracker.leechers-paradise.org%3A6969&amp;tr=udp%3A%2F%2Fzer0day.ch%3A1337&amp;tr=udp%3A%2F%2Fopen.demonii.com%3A1337&amp;tr=udp%3A%2F%2Ftracker.coppersurfer.tk%3A6969&amp;tr=udp%3A%2F%2Fexodus.desync.com%3A6969","seeders":3,"leechers":1,"uploader":"Bullrout","files":1,"time":1474373867,"description":"60 Minutes AU - 4-9-2016\r\n\r\nMeet the woman with multiple personalities, plus the secret trade in war planes and on location with Australia's beauty magnate Napoleon Perdis.\r\n\r\nComplete name : 60 Minutes AU - 4-9-2016.mp4\r\nFormat : MPEG-4\r\nFormat profile : Base Media / Version 2\r\nCodec ID : mp42 (mp42/isom/avc1)\r\nFile size : 425 MiB\r\nDuration : 53 min 13 s\r\nOverall bit rate mode : Variable\r\nOverall bit rate : 1 116 kb/s\r\n\r\n\r\nVideo\r\nID : 2\r\nFormat : AVC\r\nFormat/Info : Advanced Video Codec\r\nFormat profile :   \r\nFormat settings, CABAC : Yes\r\nFormat settings, ReFrames : 3 frames\r\nCodec ID : avc1\r\nCodec ID/Info : Advanced Video Coding\r\nDuration : 53 min 13 s\r\nBit rate mode : Variable\r\nBit rate : 985 kb/s\r\nMaximum bit rate : 1 000 kb/s\r\nWidth : 720 pixels\r\nHeight : 404 pixels\r\nDisplay aspect ratio : 16:9\r\nOriginal display aspect ratio : 16:9\r\nFrame rate mode : Constant\r\nFrame rate : 25.000 FPS\r\nStandard : PAL\r\nColor space : YUV\r\nChroma subsampling : 4:2:0\r\nBit depth : 8 bits\r\nScan type : Progressive\r\nBits/(Pixel*Frame) : 0.135\r\nStream size : 375 MiB (88%)\r\nWriting library : x264 core 112\r\nColor range : Limited\r\nColor primaries : BT.601 PAL\r\nTransfer characteristics : BT.470 System B, BT.470 System G\r\nMatrix coefficients : BT.601\r\n\r\nAudio\r\nID : 1\r\nFormat : AAC\r\nFormat/Info : Advanced Audio Codec\r\nFormat profile : LC\r\nCodec ID : 40\r\nDuration : 53 min 13 s\r\nBit rate mode : Variable\r\nBit rate : 128 kb/s\r\nMaximum bit rate : 576 kb/s\r\nChannel(s) : 2 channels\r\nChannel positions : Front: L R\r\nSampling rate : 48.0 kHz\r\nFrame rate : 46.875 FPS (1024 spf)\r\nCompression mode : Lossy\r\nStream size : 48.7 MiB (11%)","torrent":{"xt":"urn:btih:c3fc6fd5017d8e32bc47971a3ac3f3eb421e394a","amp;dn":"60+Minutes+AU+-+4-9-2016","amp;tr":["udp%3A%2F%2Ftracker.leechers-paradise.org%3A6969","udp%3A%2F%2Fzer0day.ch%3A1337","udp%3A%2F%2Fopen.demonii.com%3A1337","udp%3A%2F%2Ftracker.coppersurfer.tk%3A6969","udp%3A%2F%2Fexodus.desync.com%3A6969"],"infoHash":"c3fc6fd5017d8e32bc47971a3ac3f3eb421e394a","infoHashBuffer":{"type":"Buffer","data":[195,252,111,213,1,125,142,50,188,71,151,26,58,195,243,235,66,30,57,74]},"announce":[],"urlList":[]}}